####
#
# OBJ File Generated by Meshlab
#
####
# Object back.obj
#
# Vertices: 162
# Faces: 158
#
####
vn 0.000000 0.000000 1.000000
v 0.000000 0.408547 0.000000 0.000000 0.000000 0.000000
vn 0.000000 0.000000 1.000000
v 0.102873 0.721477 0.000000 0.000000 0.000000 0.000000
vn 0.000000 0.000000 1.000000
v 0.000000 0.805666 0.000000 0.000000 0.000000 0.000000
vn 0.000000 0.000000 1.000000
v 0.200037 0.805348 0.000000 0.000000 0.000000 0.000000
vn 0.000000 0.000000 1.000000
v 0.316515 0.801253 0.000000 0.000000 0.000000 0.000000
vn 0.000000 0.000000 1.000000
v 0.384177 0.789189 0.000000 0.000000 0.000000 0.000000
vn 0.000000 0.000000 1.000000
v 0.433693 0.770002 0.000000 0.000000 0.000000 0.000000
vn 0.000000 0.000000 1.000000
v 0.467808 0.748487 0.000000 0.000000 0.000000 0.000000
vn 0.000000 0.000000 1.000000
v 0.500695 0.711962 0.000000 0.000000 0.000000 0.000000
vn 0.000000 0.000000 1.000000
v 0.102873 0.467509 0.000000 0.000000 0.000000 0.000000
vn 0.000000 0.000000 1.000000
v 0.277576 0.715876 0.000000 0.000000 0.000000 0.000000
vn 0.000000 0.000000 1.000000
v 0.344741 0.705531 0.000000 0.000000 0.000000 0.000000
vn -0.000000 0.000000 1.000000
v 0.387963 0.680409 0.000000 0.000000 0.000000 0.000000
vn 0.000000 0.000000 1.000000
v 0.521090 0.665433 0.000000 0.000000 0.000000 0.000000
vn 0.000000 0.000000 1.000000
v 0.411740 0.651403 0.000000 0.000000 0.000000 0.000000
vn -0.000000 0.000000 1.000000
v 0.423704 0.595078 0.000000 0.000000 0.000000 0.000000
vn 0.000000 0.000000 1.000000
v 0.525510 0.596514 0.000000 0.000000 0.000000 0.000000
vn 0.000000 0.000000 1.000000
v 0.519872 0.550761 0.000000 0.000000 0.000000 0.000000
vn 0.000000 0.000000 1.000000
v 0.410831 0.535664 0.000000 0.000000 0.000000 0.000000
vn 0.000000 0.000000 1.000000
v 0.503537 0.512780 0.000000 0.000000 0.000000 0.000000
vn 0.000000 0.000000 1.000000
v 0.378911 0.496873 0.000000 0.000000 0.000000 0.000000
vn 0.000000 0.000000 1.000000
v 0.467870 0.471592 0.000000 0.000000 0.000000 0.000000
vn 0.000000 0.000000 1.000000
v 0.343648 0.478525 0.000000 0.000000 0.000000 0.000000
vn 0.000000 0.000000 1.000000
v 0.291710 0.471452 0.000000 0.000000 0.000000 0.000000
vn 0.000000 0.000000 1.000000
v 0.409280 0.437217 0.000000 0.000000 0.000000 0.000000
vn 0.000000 0.000000 1.000000
v 0.382407 0.432421 0.000000 0.000000 0.000000 0.000000
vn 0.000000 0.000000 1.000000
v 0.389994 0.424177 0.000000 0.000000 0.000000 0.000000
vn 0.000000 0.000000 1.000000
v 0.438357 0.411965 0.000000 0.000000 0.000000 0.000000
vn 0.000000 0.000000 1.000000
v 0.000000 0.011428 0.000000 0.000000 0.000000 0.000000
vn 0.000000 0.000000 1.000000
v 0.102873 0.384188 0.000000 0.000000 0.000000 0.000000
vn 0.000000 0.000000 1.000000
v 0.497158 0.376602 0.000000 0.000000 0.000000 0.000000
vn 0.000000 0.000000 1.000000
v 0.286182 0.378886 0.000000 0.000000 0.000000 0.000000
vn 0.000000 0.000000 1.000000
v 0.353721 0.369707 0.000000 0.000000 0.000000 0.000000
vn -0.000000 0.000000 1.000000
v 0.396010 0.347026 0.000000 0.000000 0.000000 0.000000
vn 0.000000 0.000000 1.000000
v 0.529717 0.338224 0.000000 0.000000 0.000000 0.000000
vn 0.000000 0.000000 1.000000
v 0.425937 0.316629 0.000000 0.000000 0.000000 0.000000
vn 0.000000 0.000000 1.000000
v 0.545071 0.306832 0.000000 0.000000 0.000000 0.000000
vn 0.000000 0.000000 1.000000
v 0.443164 0.277795 0.000000 0.000000 0.000000 0.000000
vn 0.000000 0.000000 1.000000
v 0.552890 0.243053 0.000000 0.000000 0.000000 0.000000
vn 0.000000 0.000000 1.000000
v 0.443578 0.214139 0.000000 0.000000 0.000000 0.000000
vn 0.000000 0.000000 1.000000
v 0.102873 0.097137 0.000000 0.000000 0.000000 0.000000
vn 0.000000 0.000000 1.000000
v 0.546092 0.165771 0.000000 0.000000 0.000000 0.000000
vn 0.000000 0.000000 1.000000
v 0.424545 0.160417 0.000000 0.000000 0.000000 0.000000
vn 0.000000 0.000000 1.000000
v 0.517683 0.108464 0.000000 0.000000 0.000000 0.000000
vn 0.000000 0.000000 1.000000
v 0.383446 0.122977 0.000000 0.000000 0.000000 0.000000
vn 0.000000 0.000000 1.000000
v 0.334444 0.104813 0.000000 0.000000 0.000000 0.000000
vn -0.000000 0.000000 1.000000
v 0.249607 0.097235 0.000000 0.000000 0.000000 0.000000
vn 0.000000 0.000000 1.000000
v 0.478402 0.068009 0.000000 0.000000 0.000000 0.000000
vn 0.000000 0.000000 1.000000
v 0.427560 0.037960 0.000000 0.000000 0.000000 0.000000
vn 0.000000 0.000000 1.000000
v 0.360293 0.018013 0.000000 0.000000 0.000000 0.000000
vn 0.000000 0.000000 1.000000
v 0.296320 0.012035 0.000000 0.000000 0.000000 0.000000
vn 0.000000 0.000000 1.000000
v 0.819366 0.601136 0.000000 0.000000 0.000000 0.000000
vn 0.000000 0.000000 1.000000
v 1.013712 0.608020 0.000000 0.000000 0.000000 0.000000
vn 0.000000 0.000000 1.000000
v 0.917832 0.617606 0.000000 0.000000 0.000000 0.000000
vn 0.000000 0.000000 1.000000
v 1.084571 0.574843 0.000000 0.000000 0.000000 0.000000
vn 0.000000 0.000000 1.000000
v 0.729967 0.568129 0.000000 0.000000 0.000000 0.000000
vn 0.000000 0.000000 1.000000
v 1.129245 0.521160 0.000000 0.000000 0.000000 0.000000
vn 0.000000 0.000000 1.000000
v 0.939981 0.536133 0.000000 0.000000 0.000000 0.000000
vn 0.000000 0.000000 1.000000
v 0.860576 0.527901 0.000000 0.000000 0.000000 0.000000
vn 0.000000 0.000000 1.000000
v 0.751735 0.501446 0.000000 0.000000 0.000000 0.000000
vn 0.000000 0.000000 1.000000
v 0.992301 0.522389 0.000000 0.000000 0.000000 0.000000
vn 0.000000 0.000000 1.000000
v 0.758516 0.492055 0.000000 0.000000 0.000000 0.000000
vn 0.000000 0.000000 1.000000
v 1.023643 0.495594 0.000000 0.000000 0.000000 0.000000
vn 0.000000 0.000000 1.000000
v 1.142477 0.454501 0.000000 0.000000 0.000000 0.000000
vn 0.000000 0.000000 1.000000
v 1.039570 0.461835 0.000000 0.000000 0.000000 0.000000
vn 0.000000 0.000000 1.000000
v 1.045778 0.421993 0.000000 0.000000 0.000000 0.000000
vn 0.000000 0.000000 1.000000
v 1.146235 0.338508 0.000000 0.000000 0.000000 0.000000
vn 0.000000 0.000000 1.000000
v 1.045873 0.367464 0.000000 0.000000 0.000000 0.000000
vn 0.000000 0.000000 1.000000
v 0.895189 0.360566 0.000000 0.000000 0.000000 0.000000
vn 0.000000 0.000000 1.000000
v 0.802544 0.346364 0.000000 0.000000 0.000000 0.000000
vn 0.000000 0.000000 1.000000
v 0.731079 0.316662 0.000000 0.000000 0.000000 0.000000
vn 0.000000 0.000000 1.000000
v 1.045873 0.297125 0.000000 0.000000 0.000000 0.000000
vn 0.000000 0.000000 1.000000
v 1.149900 0.010877 0.000000 0.000000 0.000000 0.000000
vn 0.000000 0.000000 1.000000
v 0.933114 0.295755 0.000000 0.000000 0.000000 0.000000
vn 0.000000 0.000000 1.000000
v 0.687844 0.273827 0.000000 0.000000 0.000000 0.000000
vn 0.000000 0.000000 1.000000
v 0.840741 0.280985 0.000000 0.000000 0.000000 0.000000
vn 0.000000 0.000000 1.000000
v 1.045671 0.223235 0.000000 0.000000 0.000000 0.000000
vn 0.000000 0.000000 1.000000
v 0.801790 0.259633 0.000000 0.000000 0.000000 0.000000
vn 0.000000 0.000000 1.000000
v 0.672323 0.242966 0.000000 0.000000 0.000000 0.000000
vn 0.000000 0.000000 1.000000
v 0.780362 0.234843 0.000000 0.000000 0.000000 0.000000
vn 0.000000 0.000000 1.000000
v 0.666209 0.202103 0.000000 0.000000 0.000000 0.000000
vn 0.000000 0.000000 1.000000
v 0.765862 0.189902 0.000000 0.000000 0.000000 0.000000
vn 0.000000 0.000000 1.000000
v 1.031487 0.166794 0.000000 0.000000 0.000000 0.000000
vn 0.000000 0.000000 1.000000
v 0.666510 0.132180 0.000000 0.000000 0.000000 0.000000
vn 0.000000 0.000000 1.000000
v 0.771761 0.139171 0.000000 0.000000 0.000000 0.000000
vn 0.000000 0.000000 1.000000
v 1.012631 0.136533 0.000000 0.000000 0.000000 0.000000
vn 0.000000 0.000000 1.000000
v 0.986371 0.111993 0.000000 0.000000 0.000000 0.000000
vn 0.000000 0.000000 1.000000
v 1.053539 0.091724 0.000000 0.000000 0.000000 0.000000
vn -0.000000 0.000000 1.000000
v 0.673407 0.104180 0.000000 0.000000 0.000000 0.000000
vn 0.000000 0.000000 1.000000
v 0.804618 0.096025 0.000000 0.000000 0.000000 0.000000
vn 0.000000 0.000000 1.000000
v 0.947527 0.091812 0.000000 0.000000 0.000000 0.000000
vn 0.000000 0.000000 1.000000
v 0.838308 0.083723 0.000000 0.000000 0.000000 0.000000
vn 0.000000 0.000000 1.000000
v 0.899893 0.082438 0.000000 0.000000 0.000000 0.000000
vn 0.000000 0.000000 1.000000
v 0.708804 0.049202 0.000000 0.000000 0.000000 0.000000
vn 0.000000 0.000000 1.000000
v 1.060275 0.067823 0.000000 0.000000 0.000000 0.000000
vn 0.000000 0.000000 1.000000
v 0.995790 0.041221 0.000000 0.000000 0.000000 0.000000
vn 0.000000 0.000000 1.000000
v 0.760719 0.014056 0.000000 0.000000 0.000000 0.000000
vn 0.000000 0.000000 1.000000
v 1.071677 0.014285 0.000000 0.000000 0.000000 0.000000
vn 0.000000 0.000000 1.000000
v 0.958187 0.017659 0.000000 0.000000 0.000000 0.000000
vn 0.000000 0.000000 1.000000
v 0.912810 0.005391 0.000000 0.000000 0.000000 0.000000
vn 0.000000 0.000000 1.000000
v 0.830374 0.000513 0.000000 0.000000 0.000000 0.000000
vn 0.000000 0.000000 1.000000
v 1.474335 0.603385 0.000000 0.000000 0.000000 0.000000
vn 0.000000 0.000000 1.000000
v 1.592492 0.614835 0.000000 0.000000 0.000000 0.000000
vn 0.000000 0.000000 1.000000
v 1.525858 0.615448 0.000000 0.000000 0.000000 0.000000
vn 0.000000 0.000000 1.000000
v 1.673596 0.605604 0.000000 0.000000 0.000000 0.000000
vn 0.000000 0.000000 1.000000
v 1.732168 0.586554 0.000000 0.000000 0.000000 0.000000
vn 0.000000 0.000000 1.000000
v 1.416396 0.576725 0.000000 0.000000 0.000000 0.000000
vn -0.000000 0.000000 1.000000
v 1.361715 0.528780 0.000000 0.000000 0.000000 0.000000
vn 0.000000 0.000000 1.000000
v 1.712460 0.531749 0.000000 0.000000 0.000000 0.000000
vn 0.000000 0.000000 1.000000
v 1.528220 0.526983 0.000000 0.000000 0.000000 0.000000
vn 0.000000 0.000000 1.000000
v 1.608841 0.526892 0.000000 0.000000 0.000000 0.000000
vn 0.000000 0.000000 1.000000
v 1.703616 0.512780 0.000000 0.000000 0.000000 0.000000
vn 0.000000 0.000000 1.000000
v 1.489808 0.512444 0.000000 0.000000 0.000000 0.000000
vn 0.000000 0.000000 1.000000
v 1.696895 0.505229 0.000000 0.000000 0.000000 0.000000
vn 0.000000 0.000000 1.000000
v 1.322673 0.464180 0.000000 0.000000 0.000000 0.000000
vn 0.000000 0.000000 1.000000
v 1.459816 0.493637 0.000000 0.000000 0.000000 0.000000
vn 0.000000 0.000000 1.000000
v 1.429355 0.458420 0.000000 0.000000 0.000000 0.000000
vn 0.000000 0.000000 1.000000
v 1.302632 0.394999 0.000000 0.000000 0.000000 0.000000
vn 0.000000 0.000000 1.000000
v 1.409471 0.408955 0.000000 0.000000 0.000000 0.000000
vn 0.000000 0.000000 1.000000
v 1.403742 0.365497 0.000000 0.000000 0.000000 0.000000
vn 0.000000 0.000000 1.000000
v 1.297406 0.316750 0.000000 0.000000 0.000000 0.000000
vn 0.000000 0.000000 1.000000
v 1.404260 0.238504 0.000000 0.000000 0.000000 0.000000
vn 0.000000 0.000000 1.000000
v 1.301541 0.222139 0.000000 0.000000 0.000000 0.000000
vn 0.000000 0.000000 1.000000
v 1.414513 0.189705 0.000000 0.000000 0.000000 0.000000
vn 0.000000 0.000000 1.000000
v 1.316983 0.163944 0.000000 0.000000 0.000000 0.000000
vn 0.000000 0.000000 1.000000
v 1.442877 0.140781 0.000000 0.000000 0.000000 0.000000
vn 0.000000 0.000000 1.000000
v 1.338214 0.119486 0.000000 0.000000 0.000000 0.000000
vn 0.000000 0.000000 1.000000
v 1.475620 0.110341 0.000000 0.000000 0.000000 0.000000
vn 0.000000 0.000000 1.000000
v 1.655310 0.096716 0.000000 0.000000 0.000000 0.000000
vn 0.000000 0.000000 1.000000
v 1.720011 0.040304 0.000000 0.000000 0.000000 0.000000
vn 0.000000 0.000000 1.000000
v 1.720261 0.117976 0.000000 0.000000 0.000000 0.000000
vn 0.000000 0.000000 1.000000
v 1.366089 0.081217 0.000000 0.000000 0.000000 0.000000
vn 0.000000 0.000000 1.000000
v 1.522263 0.089396 0.000000 0.000000 0.000000 0.000000
vn 0.000000 0.000000 1.000000
v 1.594974 0.086937 0.000000 0.000000 0.000000 0.000000
vn 0.000000 0.000000 1.000000
v 1.400059 0.049685 0.000000 0.000000 0.000000 0.000000
vn 0.000000 0.000000 1.000000
v 1.439584 0.025432 0.000000 0.000000 0.000000 0.000000
vn 0.000000 0.000000 1.000000
v 1.711659 0.026243 0.000000 0.000000 0.000000 0.000000
vn -0.000000 0.000000 1.000000
v 1.483040 0.009328 0.000000 0.000000 0.000000 0.000000
vn 0.000000 0.000000 1.000000
v 1.638414 0.004450 0.000000 0.000000 0.000000 0.000000
vn 0.000000 0.000000 1.000000
v 1.535688 0.000627 0.000000 0.000000 0.000000 0.000000
vn 0.000000 0.000000 1.000000
v 1.860908 0.853510 0.000000 0.000000 0.000000 0.000000
vn 0.000000 0.000000 1.000000
v 1.957439 0.854235 0.000000 0.000000 0.000000 0.000000
vn 0.000000 0.000000 1.000000
v 1.879810 0.856323 0.000000 0.000000 0.000000 0.000000
vn -0.000000 0.000000 1.000000
v 1.857598 0.623202 0.000000 0.000000 0.000000 0.000000
vn 0.000000 0.000000 1.000000
v 1.957683 0.321236 0.000000 0.000000 0.000000 0.000000
vn -0.000000 0.000000 1.000000
v 2.019284 0.395588 0.000000 0.000000 0.000000 0.000000
vn -0.000000 0.000000 1.000000
v 2.333091 0.605678 0.000000 0.000000 0.000000 0.000000
vn -0.000000 0.000000 1.000000
v 2.214621 0.605004 0.000000 0.000000 0.000000 0.000000
vn 0.000000 0.000000 1.000000
v 2.092954 0.351885 0.000000 0.000000 0.000000 0.000000
vn 0.000000 0.000000 1.000000
v 1.857424 0.246157 0.000000 0.000000 0.000000 0.000000
vn 0.000000 0.000000 1.000000
v 2.028764 0.282601 0.000000 0.000000 0.000000 0.000000
vn 0.000000 0.000000 1.000000
v 2.014732 0.277537 0.000000 0.000000 0.000000 0.000000
vn 0.000000 0.000000 1.000000
v 2.346249 0.016305 0.000000 0.007843 0.007843 0.007843
vn 0.000000 0.000000 1.000000
v 1.960297 0.232095 0.000000 0.000000 0.000000 0.000000
vn 0.000000 0.000000 1.000000
v 1.857424 0.064775 0.000000 0.000000 0.000000 0.000000
vn 0.000000 0.000000 1.000000
v 1.960297 0.011428 0.000000 0.000000 0.000000 0.000000
vn 0.000000 0.000000 1.000000
v 2.229857 0.011428 0.000000 0.000000 0.000000 0.000000
vn 0.000000 0.000000 1.000000
v 1.857424 0.011428 0.000000 0.000000 0.000000 0.000000
vn 0.000000 0.000000 1.000000
v 2.332285 0.011999 0.000000 0.003922 0.003922 0.003922
vn 0.000000 0.000000 0.000000
v 1.908861 0.011428 0.000000 0.000000 0.000000 0.000000
vn 0.000000 0.000000 0.000000
v 1.960297 0.011428 0.000000 0.000000 0.000000 0.000000
vn 0.000000 0.000000 0.000000
v 1.857424 0.011428 0.000000 0.000000 0.000000 0.000000
# 162 vertices, 0 vertices normals

f 1//1 2//2 3//3
f 2//2 4//4 3//3
f 2//2 5//5 4//4
f 2//2 6//6 5//5
f 2//2 7//7 6//6
f 2//2 8//8 7//7
f 2//2 9//9 8//8
f 1//1 10//10 2//2
f 11//11 9//9 2//2
f 12//12 9//9 11//11
f 13//13 9//9 12//12
f 13//13 14//14 9//9
f 15//15 14//14 13//13
f 16//16 14//14 15//15
f 16//16 17//17 14//14
f 16//16 18//18 17//17
f 19//19 18//18 16//16
f 19//19 20//20 18//18
f 21//21 20//20 19//19
f 21//21 22//22 20//20
f 23//23 22//22 21//21
f 24//24 22//22 23//23
f 10//10 22//22 24//24
f 1//1 22//22 10//10
f 1//1 25//25 22//22
f 1//1 26//26 25//25
f 1//1 27//27 26//26
f 1//1 28//28 27//27
f 29//29 30//30 1//1
f 30//30 28//28 1//1
f 30//30 31//31 28//28
f 32//32 31//31 30//30
f 33//33 31//31 32//32
f 34//34 31//31 33//33
f 34//34 35//35 31//31
f 36//36 35//35 34//34
f 36//36 37//37 35//35
f 38//38 37//37 36//36
f 38//38 39//39 37//37
f 40//40 39//39 38//38
f 29//29 41//41 30//30
f 40//40 42//42 39//39
f 43//43 42//42 40//40
f 43//43 44//44 42//42
f 45//45 44//44 43//43
f 46//46 44//44 45//45
f 47//47 44//44 46//46
f 29//29 47//47 41//41
f 29//29 44//44 47//47
f 29//29 48//48 44//44
f 29//29 49//49 48//48
f 29//29 50//50 49//49
f 29//29 51//51 50//50
f 52//52 53//53 54//54
f 52//52 55//55 53//53
f 56//56 55//55 52//52
f 56//56 57//57 55//55
f 58//58 57//57 56//56
f 56//56 59//59 58//58
f 60//60 59//59 56//56
f 61//61 57//57 58//58
f 60//60 62//62 59//59
f 63//63 57//57 61//61
f 63//63 64//64 57//57
f 65//65 64//64 63//63
f 66//66 64//64 65//65
f 66//66 67//67 64//64
f 68//68 67//67 66//66
f 69//69 67//67 68//68
f 70//70 67//67 69//69
f 71//71 67//67 70//70
f 71//71 72//72 67//67
f 72//72 73//73 67//67
f 71//71 74//74 72//72
f 75//75 74//74 71//71
f 75//75 76//76 74//74
f 77//77 73//73 72//72
f 75//75 78//78 76//76
f 79//79 78//78 75//75
f 79//79 80//80 78//78
f 81//81 80//80 79//79
f 81//81 82//82 80//80
f 83//83 73//73 77//77
f 84//84 82//82 81//81
f 84//84 85//85 82//82
f 86//86 73//73 83//83
f 87//87 88//88 86//86
f 88//88 73//73 86//86
f 89//89 85//85 84//84
f 89//89 90//90 85//85
f 91//91 88//88 87//87
f 89//89 92//92 90//90
f 93//93 88//88 91//91
f 94//94 92//92 89//89
f 95//95 73//73 88//88
f 94//94 93//93 92//92
f 94//94 88//88 93//93
f 94//94 96//96 88//88
f 97//97 96//96 94//94
f 98//98 73//73 95//95
f 97//97 99//99 96//96
f 97//97 100//100 99//99
f 101//101 100//100 97//97
f 102//102 103//103 104//104
f 102//102 105//105 103//103
f 102//102 106//106 105//105
f 107//107 106//106 102//102
f 108//108 106//106 107//107
f 108//108 109//109 106//106
f 108//108 110//110 109//109
f 110//110 111//111 109//109
f 111//111 112//112 109//109
f 108//108 113//113 110//110
f 114//114 112//112 111//111
f 115//115 113//113 108//108
f 115//115 116//116 113//113
f 115//115 117//117 116//116
f 118//118 117//117 115//115
f 118//118 119//119 117//117
f 118//118 120//120 119//119
f 121//121 120//120 118//118
f 121//121 122//122 120//120
f 123//123 122//122 121//121
f 123//123 124//124 122//122
f 125//125 124//124 123//123
f 125//125 126//126 124//124
f 127//127 126//126 125//125
f 127//127 128//128 126//126
f 129//129 130//130 131//131
f 132//132 128//128 127//127
f 132//132 133//133 128//128
f 134//134 130//130 129//129
f 132//132 134//134 133//133
f 132//132 130//130 134//134
f 135//135 130//130 132//132
f 136//136 130//130 135//135
f 136//136 137//137 130//130
f 138//138 137//137 136//136
f 138//138 139//139 137//137
f 140//140 139//139 138//138
f 141//141 142//142 143//143
f 144//144 142//142 141//141
f 144//144 145//145 142//142
f 146//146 147//147 148//148
f 146//146 149//149 147//147
f 150//150 145//145 144//144
f 145//145 149//149 146//146
f 150//150 149//149 145//145
f 150//150 151//151 149//149
f 150//150 152//152 151//151
f 151//151 153//153 149//149
f 150//150 154//154 152//152
f 155//155 154//154 150//150
f 155//155 156//156 154//154
f 157//157 153//153 151//151
f 158//158 156//156 155//155
f 157//157 159//159 153//153
f 160//160 161//161 162//162
# 158 faces, 0 coords texture

# End of File
