####
#
# OBJ File Generated by Meshlab
#
####
# Object heatlhbar.obj
#
# Vertices: 4
# Faces: 2
#
####
vn -0.000000 0.000000 1.000000
v 0.000000 0.000000 0.000000 0.513725 1.000000 0.000000
vn -0.000000 0.000000 1.000000
v 4.579839 0.763145 0.000000 0.513725 1.000000 0.000000
vn -0.000000 0.000000 1.000000
v 0.000000 0.763145 0.000000 0.513725 1.000000 0.000000
vn 0.000000 0.000000 1.000000
v 4.579839 0.000000 0.000000 0.513725 1.000000 0.000000
# 4 vertices, 0 vertices normals

f 1//1 2//2 3//3
f 1//1 4//4 2//2
# 2 faces, 0 coords texture

# End of File
